<?xml version="1.0" encoding="utf-8"?>
<!-- Generator: Adobe Illustrator 26.0.1, SVG Export Plug-In . SVG Version: 6.00 Build 0)  -->
<svg version="1.1" id="Camada_1" xmlns="http://www.w3.org/2000/svg" xmlns:xlink="http://www.w3.org/1999/xlink" x="0px" y="0px"
	 viewBox="0 0 431.5 195" style="enable-background:new 0 0 431.5 195;" xml:space="preserve">
<style type="text/css">
	.st0{fill:#D30E42;}
</style>
<g>
	<g>
		<path class="st0" d="M290.8,48.7l-30.5,56.7v40.8h-22.9v-40.6l-31-56.8h24l19.2,36l19.2-36H290.8z"/>
		<path class="st0" d="M337.2,116.9h-36c0.2,3.3,0.8,5.9,1.8,7.7c1.1,1.8,2.7,3.1,5,3.9c2.3,0.8,5.4,1.2,9.4,1.2
			c4.6,0,10-0.8,16.3-2.3v17.9c-3.5,0.8-6.7,1.4-9.7,1.8c-3,0.4-6.1,0.6-9.4,0.6c-8.6,0-15.6-1.3-20.8-3.9
			c-5.3-2.6-9.2-6.7-11.7-12.2c-2.5-5.5-3.8-12.8-3.8-21.8c0-11.9,2.6-21,7.9-27.4c5.3-6.4,12.8-9.6,22.7-9.6
			c9.3,0,16.3,3.2,21.1,9.6c4.8,6.4,7.1,15.8,7.1,28.1V116.9z M304.5,88.8c-1.1,0.9-1.9,2.5-2.5,4.8c-0.6,2.3-0.9,5.6-0.9,9.8h15.1
			c0-4.3-0.3-7.5-0.9-9.8c-0.5-2.3-1.3-3.9-2.3-4.8c-1-0.9-2.4-1.3-4.2-1.3C307,87.5,305.6,87.9,304.5,88.8z"/>
		<path class="st0" d="M353.8,146.2V69h-26.3V48.7h75.6V69h-26.3v77.3H353.8z"/>
		<path class="st0" d="M408.7,146.2V48.7h22.9v97.5H408.7z"/>
	</g>
	<g>
		<polygon class="st0" points="122,92.6 122,75.8 84.4,97.5 46.9,75.8 46.9,92.6 75,108.9 75,146.2 93.8,146.2 93.8,108.9 		"/>
		<path class="st0" d="M168.9,48.7L84.4,0L0,48.7v97.5L84.4,195l84.4-48.7V48.7z M108.8,121.9l32.3,18.7l-56.8,32.8l-56.8-32.8
			L60,121.9L18.8,98.1V59.6l18.8-10.8l46.9,27.1l46.9-27.1l18.8,10.8v0V98L108.8,121.9z"/>
	</g>
</g>
</svg>
