<?xml version="1.0" standalone="no"?>
<!DOCTYPE svg PUBLIC "-//W3C//DTD SVG 20010904//EN"
 "http://www.w3.org/TR/2001/REC-SVG-20010904/DTD/svg10.dtd">
<svg version="1.0" xmlns="http://www.w3.org/2000/svg"
 width="810.000000pt" height="826.000000pt" viewBox="0 0 810.000000 826.000000"
 preserveAspectRatio="xMidYMid meet">

<g transform="translate(0.000000,826.000000) scale(0.100000,-0.100000)"
fill="#000000" stroke="none">
<path d="M2398 6974 l-1638 -946 0 -1903 0 -1903 1639 -946 c901 -520 1644
-946 1651 -946 7 0 750 426 1651 946 l1639 946 0 1903 0 1903 -1638 946 c-902
520 -1645 946 -1653 946 -8 0 -751 -426 -1651 -946z m750 -1482 l902 -521 893
516 c490 284 904 520 918 526 24 9 59 -9 388 -198 l361 -209 -2 -754 -3 -753
-798 -461 c-439 -254 -794 -464 -790 -469 4 -4 283 -166 618 -359 336 -194
614 -355 618 -360 9 -8 -2179 -1275 -2203 -1275 -21 0 -2212 1266 -2205 1274
4 3 284 166 623 362 339 196 616 360 615 364 -1 4 -359 213 -795 465 l-793
458 -3 754 -2 754 357 207 c219 127 366 206 378 204 11 -2 426 -238 923 -525z"/>
<path d="M2590 4638 l0 -325 550 -317 550 -318 0 -729 0 -729 360 0 360 0 2
731 3 730 548 316 547 316 0 325 c0 260 -3 323 -13 319 -7 -3 -333 -190 -724
-416 -392 -226 -717 -411 -723 -411 -6 0 -331 185 -723 411 -391 226 -717 413
-724 416 -10 4 -13 -59 -13 -319z"/>
</g>
</svg>
